<svg width="16" height="18" viewBox="0 0 16 18" fill="none" xmlns="http://www.w3.org/2000/svg">
<path fill-rule="evenodd" clip-rule="evenodd" d="M0 3C0 1.34315 1.34315 0 3 0H7C8.65685 0 10 1.34315 10 3V5H8V3C8 2.44772 7.55228 2 7 2H3C2.44772 2 2 2.44772 2 3V15C2 15.5523 2.44772 16 3 16H7C7.55228 16 8 15.5523 8 15V13.5H10V15C10 16.6569 8.65685 18 7 18H3C1.34315 18 0 16.6569 0 15V3ZM11.2929 5.29289C11.6834 4.90237 12.3166 4.90237 12.7071 5.29289L15.7071 8.29289C16.0976 8.68342 16.0976 9.31658 15.7071 9.70711L12.7071 12.7071C12.3166 13.0976 11.6834 13.0976 11.2929 12.7071C10.9024 12.3166 10.9024 11.6834 11.2929 11.2929L12.5858 10H5C4.44772 10 4 9.55229 4 9C4 8.44771 4.44772 8 5 8H12.5858L11.2929 6.70711C10.9024 6.31658 10.9024 5.68342 11.2929 5.29289Z" fill="black"/>
</svg>
