<svg width="21" height="19" viewBox="0 0 21 19" fill="none" xmlns="http://www.w3.org/2000/svg">
<path fill-rule="evenodd" clip-rule="evenodd" d="M6.93851 2.99683C6.20141 2.99683 5.60734 3.59261 5.60734 4.32328C5.60734 5.05395 6.20141 5.64973 6.93851 5.64973C7.6756 5.64973 8.26968 5.05395 8.26968 4.32328C8.26968 3.59261 7.6756 2.99683 6.93851 2.99683ZM3.60734 4.32328C3.60734 2.48422 5.10067 0.996826 6.93851 0.996826C8.77635 0.996826 10.2697 2.48422 10.2697 4.32328C10.2697 6.16233 8.77635 7.64973 6.93851 7.64973C5.10067 7.64973 3.60734 6.16233 3.60734 4.32328ZM6.93938 9.97477C4.48549 9.97477 2.5 11.9591 2.5 14.4021C2.5 14.9544 2.05228 15.4021 1.5 15.4021C0.947715 15.4021 0.5 14.9544 0.5 14.4021C0.5 10.8503 3.3851 7.97477 6.93938 7.97477C7.92762 7.97477 8.86654 8.19766 9.70599 8.59682C10.2048 8.83398 10.4168 9.43058 10.1797 9.92935C9.94249 10.4281 9.3459 10.6402 8.84713 10.403C8.27044 10.1288 7.62437 9.97477 6.93938 9.97477ZM14.1908 6.98755C13.477 6.98755 12.9154 7.55783 12.9154 8.24034C12.9154 8.92284 13.477 9.49312 14.1908 9.49312C14.9046 9.49312 15.4662 8.92284 15.4662 8.24034C15.4662 7.55783 14.9046 6.98755 14.1908 6.98755ZM10.9154 8.24034C10.9154 6.43448 12.3913 4.98755 14.1908 4.98755C15.9903 4.98755 17.4662 6.43448 17.4662 8.24034C17.4662 10.0462 15.9903 11.4931 14.1908 11.4931C12.3913 11.4931 10.9154 10.0462 10.9154 8.24034ZM14.1908 13.7446C11.8015 13.7446 9.8816 15.6597 9.8816 18.0011C9.8816 18.5534 9.43388 19.0011 8.8816 19.0011C8.32931 19.0011 7.8816 18.5534 7.8816 18.0011C7.8816 14.5363 10.7158 11.7446 14.1908 11.7446C17.6659 11.7446 20.5001 14.5363 20.5001 18.0011C20.5001 18.5534 20.0524 19.0011 19.5001 19.0011C18.9478 19.0011 18.5001 18.5534 18.5001 18.0011C18.5001 15.6597 16.5802 13.7446 14.1908 13.7446Z" fill="#FFFF00"/>
</svg>
